<svg width="10" height="18" viewBox="0 0 10 18" fill="none" xmlns="http://www.w3.org/2000/svg">
<path d="M2.84855 10.1602C2.78097 10.1602 1.29411 10.1602 0.618264 10.1602C0.257813 10.1602 0.145172 10.025 0.145172 9.68711C0.145172 8.78598 0.145172 7.86233 0.145172 6.9612C0.145172 6.60075 0.280341 6.48811 0.618264 6.48811H2.84855C2.84855 6.42053 2.84855 5.11389 2.84855 4.50563C2.84855 3.60451 3.00625 2.74844 3.45681 1.95995C3.9299 1.14894 4.60575 0.60826 5.46182 0.292866C6.02502 0.0901125 6.58823 0 7.19649 0H9.40424C9.71964 0 9.85481 0.135169 9.85481 0.450563V3.01877C9.85481 3.33417 9.71964 3.46934 9.40424 3.46934C8.79598 3.46934 8.18772 3.46934 7.57946 3.49186C6.9712 3.49186 6.65581 3.78473 6.65581 4.41552C6.63328 5.09136 6.65581 5.74468 6.65581 6.44305H9.26908C9.62953 6.44305 9.7647 6.57822 9.7647 6.93867V9.66458C9.7647 10.025 9.65205 10.1377 9.26908 10.1377C8.45806 10.1377 6.72339 10.1377 6.65581 10.1377V17.4819C6.65581 17.8648 6.54317 18 6.13766 18C5.19148 18 4.26783 18 3.32164 18C2.98372 18 2.84855 17.8648 2.84855 17.5269C2.84855 15.1615 2.84855 10.2278 2.84855 10.1602Z" fill="#101724"/>
</svg>
