<svg width="20" height="20" viewBox="0 0 20 20" fill="none" xmlns="http://www.w3.org/2000/svg">
<g clip-path="url(#clip0_3001_366)">
<path fill-rule="evenodd" clip-rule="evenodd" d="M14.2153 13.7024C13.8659 14.2 13.3494 14.5953 12.6812 14.8765C12.0165 15.1529 11.2212 15.2941 10.3165 15.2941C9.23176 15.2941 8.32118 15.1023 7.61176 14.7223C7.10353 14.4471 6.68471 14.0718 6.36589 13.6094C6.04471 13.1435 5.88234 12.68 5.88234 12.2341C5.88234 11.9553 5.98824 11.7141 6.19882 11.5141C6.40471 11.3188 6.66942 11.2188 6.98589 11.2188C7.24589 11.2188 7.47058 11.2988 7.65294 11.4529C7.82589 11.6024 7.97529 11.8212 8.09648 12.1059C8.22942 12.4141 8.37529 12.6741 8.52942 12.8812C8.67882 13.0788 8.89294 13.2447 9.16471 13.3753C9.43882 13.5047 9.80706 13.5718 10.2624 13.5718C10.8871 13.5718 11.4 13.4376 11.7847 13.1729C12.1612 12.9129 12.3447 12.6024 12.3447 12.2224C12.3447 11.9212 12.2494 11.6859 12.0529 11.4988C11.8459 11.3059 11.5741 11.1541 11.2459 11.0518C10.9023 10.9447 10.4353 10.8282 9.85882 10.7059C9.07411 10.5365 8.40705 10.3353 7.87647 10.1082C7.33529 9.87647 6.89765 9.55529 6.57882 9.15058C6.25412 8.74118 6.08942 8.22824 6.08942 7.62471C6.08942 7.04942 6.26235 6.53176 6.60353 6.08471C6.94118 5.64 7.43411 5.29529 8.06942 5.05765C8.69765 4.82588 9.44353 4.70588 10.2882 4.70588C10.9624 4.70588 11.5576 4.78353 12.0529 4.94C12.5506 5.09647 12.9706 5.30706 13.3012 5.56706C13.6341 5.82824 13.8812 6.10824 14.0365 6.39883C14.1918 6.69294 14.2729 6.98589 14.2729 7.26706C14.2729 7.54 14.1671 7.78706 13.9624 8.00235C13.7553 8.21882 13.4941 8.32942 13.1859 8.32942C12.9071 8.32942 12.6871 8.26118 12.5341 8.12471C12.3929 7.99882 12.2459 7.80235 12.0835 7.52C11.8941 7.15882 11.6659 6.87529 11.4047 6.67412C11.1506 6.48 10.7271 6.38118 10.1435 6.38118C9.60118 6.38118 9.16118 6.49058 8.83412 6.70706C8.51766 6.91529 8.36471 7.15411 8.36471 7.43647C8.36471 7.61058 8.41411 7.75529 8.51648 7.88C8.62353 8.01294 8.77529 8.12823 8.96589 8.22353C9.16471 8.32589 9.36942 8.40471 9.57411 8.46235C9.78471 8.52118 10.1377 8.60706 10.62 8.72C11.2318 8.85294 11.7941 9 12.2918 9.16118C12.7953 9.32353 13.2318 9.52353 13.5859 9.75647C13.9459 9.99294 14.2341 10.2976 14.4365 10.6624C14.6412 11.0271 14.7447 11.4788 14.7447 12.0035C14.7447 12.6294 14.5671 13.2012 14.2153 13.7024ZM19.4247 12.1224C19.5682 11.4729 19.6459 10.7988 19.6459 10.1035C19.6459 4.90942 15.3753 0.698823 10.1059 0.698823C9.55058 0.698823 9.00471 0.745885 8.47529 0.836469C7.62235 0.305885 6.61411 0 5.53177 0C2.47765 0 0 2.44118 0 5.45411C0 6.46118 0.278823 7.40353 0.76 8.21412C0.634115 8.82471 0.568229 9.45647 0.568229 10.1035C0.568229 15.2988 4.83765 19.5106 10.1059 19.5106C10.7035 19.5106 11.2859 19.4553 11.8529 19.3529C12.6318 19.7647 13.5224 20 14.4694 20C17.5247 20 20 17.5588 20 14.5459C20 13.6753 19.7918 12.8529 19.4247 12.1224Z" fill="#151515"/>
</g>
<defs>
<clipPath id="clip0_3001_366">
<rect width="20" height="20" fill="white"/>
</clipPath>
</defs>
</svg>
