<svg width="22" height="14" viewBox="0 0 22 14" fill="none" xmlns="http://www.w3.org/2000/svg">
<path d="M13.3217 6.75321C12.9194 6.59954 12.9194 6.01264 12.8944 5.60394C12.7939 4.14816 13.2967 1.92565 12.6933 0.980733C12.2661 0.418362 10.204 0.469858 8.94727 0.546693C8.59487 0.59819 8.16765 0.674208 7.86594 0.82788C7.56423 0.981551 7.26252 1.23658 7.26252 1.46627C7.26252 1.79813 8.01719 1.74745 8.29316 2.18149C8.59487 2.64169 8.59487 3.63728 8.59487 4.45468C8.59487 5.39959 8.44361 6.65185 8.06708 6.70253C7.4886 6.72787 7.16194 6.14016 6.86023 5.70612C6.25681 4.86338 5.65339 3.81547 5.20042 2.79373C4.97434 2.25751 4.84803 1.6698 4.52137 1.44011C4.01852 1.08209 3.11339 1.05675 2.2332 1.08209C1.42864 1.10743 0.271682 1.00526 0.0455999 1.49079C-0.130599 2.027 0.24674 2.53788 0.447881 2.97274C1.47852 5.24592 2.5848 7.23874 3.9429 9.12857C5.20042 10.8909 6.38152 12.296 8.69463 13.0366C9.34874 13.2409 12.2146 13.8286 12.7931 13.0366C12.9942 12.73 12.9443 12.0401 13.0449 11.5293C13.1455 11.0184 13.271 10.5075 13.7489 10.4822C14.1512 10.4568 14.3773 10.814 14.6291 11.0699C14.9058 11.3511 15.1319 11.5808 15.3331 11.8366C15.811 12.3222 16.3138 12.9859 16.9173 13.2417C17.7468 13.5997 19.0292 13.4976 20.2361 13.4461C21.2168 13.4207 21.9208 13.2164 21.9964 12.6287C22.0471 12.1685 21.5435 11.5048 21.2418 11.1214C20.4871 10.1765 20.1355 9.89529 19.2802 9.0264C18.9029 8.64304 18.425 8.23434 18.425 7.77496C18.4001 7.49377 18.6261 7.23874 18.8273 6.95756C19.7075 5.62928 20.5877 4.68437 21.3922 3.3046C21.6183 2.8959 22.1469 1.95099 21.9458 1.49079C21.7197 0.979916 20.4621 1.13277 19.6825 1.13277C18.6768 1.13277 17.3694 1.05593 17.1176 1.26028C16.6397 1.59215 16.4385 2.12918 16.2125 2.64005C15.7096 3.81547 15.0306 5.01542 14.3266 5.90965C14.0747 6.21618 13.5976 6.85457 13.3209 6.75239L13.3217 6.75321Z" fill="#151515"/>
</svg>
