<svg width="24" height="16" viewBox="0 0 24 16" fill="none" xmlns="http://www.w3.org/2000/svg">
<g clip-path="url(#clip0_878_8458)">
<rect width="24" height="16" fill="#1A47B8"/>
<path d="M21.7143 0H2.28571C1.02335 0 0 0.955126 0 2.13333V13.8667C0 15.0449 1.02335 16 2.28571 16H21.7143C22.9767 16 24 15.0449 24 13.8667V2.13333C24 0.955126 22.9767 0 21.7143 0Z" fill="#1A47B8"/>
<path opacity="0.5" fill-rule="evenodd" clip-rule="evenodd" d="M4.57227 12.2669L5.71512 11.7335L6.28655 10.6669L6.85798 11.7335L8.00084 12.2669L6.85798 12.8002L6.28655 13.8669L5.71512 12.8002L4.57227 12.2669ZM16.0008 3.2002V4.26686H17.1437V3.2002H16.0008ZM19.4294 4.26686V5.33353H20.5723V4.26686H19.4294ZM14.858 6.4002V7.46686H16.0008V6.4002H14.858ZM18.2866 7.46686V8.53353H19.4294V7.46686H18.2866ZM17.1437 10.6669V11.7335H18.2866V10.6669H17.1437Z" fill="white"/>
<path d="M10.2854 1.06641H2.28544C1.65425 1.06641 1.14258 1.54397 1.14258 2.13307V7.46641C1.14258 8.05551 1.65425 8.53307 2.28544 8.53307H10.2854C10.9166 8.53307 11.4283 8.05551 11.4283 7.46641V2.13307C11.4283 1.54397 10.9166 1.06641 10.2854 1.06641Z" fill="white"/>
<path fill-rule="evenodd" clip-rule="evenodd" d="M5.71373 5.33379H2.28516V4.26712H5.71373V2.13379H6.85659V4.26712H10.2852V5.33379H6.85659V7.46712H5.71373V5.33379ZM8.57087 6.40046V7.46712H10.2852V6.40046H8.57087ZM8.57087 2.13379V3.20046H10.2852V2.13379H8.57087ZM2.28516 6.40046V7.46712H3.99944V6.40046H2.28516ZM2.28516 2.13379V3.20046H3.99944V2.13379H2.28516Z" fill="#F93939"/>
</g>
<defs>
<clipPath id="clip0_878_8458">
<rect width="24" height="16" fill="white"/>
</clipPath>
</defs>
</svg>
