<svg width="24" height="16" viewBox="0 0 24 16" fill="none" xmlns="http://www.w3.org/2000/svg">
<g clip-path="url(#clip0_878_12466)">
<rect width="24" height="16" fill="white"/>
<path d="M12.2353 12.3921H11.7647L11.8824 10.6352C11.8757 10.5427 11.8281 10.5184 11.6471 10.5254L9.76471 10.745C9.76471 10.745 10.1176 10.3058 10.1176 10.0862C10.1176 9.8666 8 8.43915 8 8.43915C8 8.43915 8.47059 8.32935 8.58824 8.21954C8.70588 8.10974 8.11765 6.9019 8.11765 6.9019C8.11765 6.9019 9.31321 7.34111 9.41176 7.23131C9.51032 7.1215 9.64706 6.68229 9.64706 6.68229C9.64706 6.68229 10.5882 7.67052 10.8235 7.67052C11.0588 7.67052 10.3529 5.25484 10.3529 5.25484C10.3529 5.25484 10.9412 5.69405 11.1765 5.69405C11.4118 5.69405 12 4.2666 12 4.2666C12 4.2666 12.5882 5.69405 12.7059 5.69405C12.8235 5.69405 13.6471 5.25484 13.6471 5.25484C13.6471 5.25484 13.0588 7.56072 13.1765 7.67052C13.2941 7.78033 14.3529 6.68229 14.3529 6.68229C14.3529 6.68229 14.4706 7.1215 14.5882 7.23131C14.7059 7.34111 15.8824 6.9019 15.8824 6.9019C15.8824 6.9019 15.2941 8.10974 15.4118 8.21954C15.5294 8.32935 16 8.43915 16 8.43915C16 8.43915 13.8824 9.8666 13.8824 10.0862C13.8824 10.3058 14.1176 10.745 14.1176 10.745L12.3529 10.5254C12.2111 10.4875 12.1619 10.5163 12.1176 10.6352L12.2353 12.3921Z" fill="#F93939"/>
<rect x="18.2852" width="5.71428" height="16" fill="#F93939"/>
<rect width="5.71429" height="16" fill="#F93939"/>
</g>
<defs>
<clipPath id="clip0_878_12466">
<rect width="24" height="16" fill="white"/>
</clipPath>
</defs>
</svg>
