<svg width="24" height="16" viewBox="0 0 24 16" fill="none" xmlns="http://www.w3.org/2000/svg">
<g clip-path="url(#clip0_878_12413)">
<rect width="24" height="16" fill="#F93939"/>
<path d="M21.7143 0H2.28571C1.02335 0 0 0.955126 0 2.13333V13.8667C0 15.0449 1.02335 16 2.28571 16H21.7143C22.9767 16 24 15.0449 24 13.8667V2.13333C24 0.955126 22.9767 0 21.7143 0Z" fill="#F93939"/>
<path fill-rule="evenodd" clip-rule="evenodd" d="M6.28412 7.7122L4.60412 8.53673L4.92412 6.7906L3.56641 5.55326L5.44412 5.30046L6.28412 3.71113L7.12298 5.30046L9.00069 5.55326L7.64069 6.7906L7.96298 8.53566L6.28412 7.7122ZM10.2864 3.2002H11.4293V4.26686H10.2864V3.2002ZM11.4293 5.33353H12.5721V6.4002H11.4293V5.33353ZM11.4293 7.46686H12.5721V8.53353H11.4293V7.46686ZM10.2864 9.6002H11.4293V10.6669H10.2864V9.6002Z" fill="#FFDA2C"/>
</g>
<defs>
<clipPath id="clip0_878_12413">
<rect width="24" height="16" fill="white"/>
</clipPath>
</defs>
</svg>
