<svg width="24" height="16" viewBox="0 0 24 16" fill="none" xmlns="http://www.w3.org/2000/svg">
<rect width="24" height="16" fill="white"/>
<path fill-rule="evenodd" clip-rule="evenodd" d="M16 8.00039C16 10.0623 14.2091 11.7337 12 11.7337C9.79086 11.7337 8 10.0623 8 8.00039C8 6.80572 10.6857 6.30439 12.9463 6.49319C13.1863 6.43346 13.4446 6.40039 13.7143 6.40039C14.9771 6.40039 16 7.11719 16 8.00039Z" fill="#232C80"/>
<path fill-rule="evenodd" clip-rule="evenodd" d="M11.4286 7.4666C11.4286 7.4666 12.4514 6.39994 13.7143 6.39994C14.9771 6.39994 16 7.11673 16 7.99994C16 5.93807 14.2091 4.2666 12 4.2666C10.4034 4.2666 9.02514 5.13913 8.384 6.40207C8 7.4666 8 7.77807 8 7.99994C8.57143 8.53327 9.20686 8.53327 9.71429 8.53327C10.2217 8.53327 10.6777 8.3274 10.992 7.99994L11.4286 7.4666Z" fill="#F93939"/>
<path fill-rule="evenodd" clip-rule="evenodd" d="M17.1437 5.33353H19.4294L17.1437 3.2002H16.0008L17.1437 5.33353ZM6.85798 5.33353H4.57227L6.85798 3.2002H8.00084L6.85798 5.33353ZM17.1437 10.6669H19.4294L17.1437 12.8002H16.0008L17.1437 10.6669ZM6.85798 10.6669H4.57227L6.85798 12.8002H8.00084L6.85798 10.6669Z" fill="#151515"/>
</svg>
