<svg width="24" height="16" viewBox="0 0 24 16" fill="none" xmlns="http://www.w3.org/2000/svg">
<rect width="24" height="16" fill="white"/>
<path fill-rule="evenodd" clip-rule="evenodd" d="M0 0H24V9.6H0V0Z" fill="#F93939"/>
<path fill-rule="evenodd" clip-rule="evenodd" d="M6.85658 8.38766C6.52516 8.48366 6.17087 8.53379 5.80173 8.53379C3.85887 8.53379 2.28516 7.10126 2.28516 5.33379C2.28516 3.56632 3.86001 2.13379 5.80173 2.13379C6.16973 2.13379 6.52401 2.18499 6.85658 2.27992C5.4303 2.68846 4.39487 3.90126 4.39487 5.33379C4.39487 6.76632 5.4303 7.97912 6.85658 8.38766ZM9.1423 3.20046H10.2852V4.26712H9.1423V3.20046ZM11.428 4.26712H12.5709V5.33379H11.428V4.26712ZM10.2852 6.40046H11.428V7.46712H10.2852V6.40046ZM6.85658 4.26712H7.99944V5.33379H6.85658V4.26712ZM7.99944 6.40046H9.1423V7.46712H7.99944V6.40046Z" fill="white"/>
</svg>
