<svg width="24" height="16" viewBox="0 0 24 16" fill="none" xmlns="http://www.w3.org/2000/svg">
<g clip-path="url(#clip0_878_12347)">
<rect width="24" height="16" fill="#F93939"/>
<path d="M21.7143 0H2.28571C1.02335 0 0 0.955126 0 2.13333V13.8667C0 15.0449 1.02335 16 2.28571 16H21.7143C22.9767 16 24 15.0449 24 13.8667V2.13333C24 0.955126 22.9767 0 21.7143 0Z" fill="#F93939"/>
<path fill-rule="evenodd" clip-rule="evenodd" d="M0 4.2666H24V11.7333H0V4.2666Z" fill="#FFDA2C"/>
<path fill-rule="evenodd" clip-rule="evenodd" d="M10.2866 6.63677V9.32477C10.2866 10.0714 9.51855 10.6688 8.57227 10.6688H6.28655C5.34255 10.6666 4.57227 10.0661 4.57227 9.32264V6.63464C4.57227 6.02451 5.08427 5.51464 5.78827 5.34931C6.00084 4.79464 6.65455 5.29171 7.42941 5.29171C8.20884 5.29171 8.85798 4.79784 9.07055 5.35037C9.77227 5.51997 10.2866 6.03091 10.2866 6.63677Z" fill="#D4AF2C"/>
<path fill-rule="evenodd" clip-rule="evenodd" d="M10.2849 7.4668H11.4277V10.6668H10.2849V7.4668ZM3.42773 7.4668H4.57059V10.6668H3.42773V7.4668Z" fill="#CBCBCB"/>
<path fill-rule="evenodd" clip-rule="evenodd" d="M10.2849 9.59961H11.4277V10.6663H10.2849V9.59961ZM3.42773 9.59961H4.57059V10.6663H3.42773V9.59961Z" fill="#1A47B8"/>
<path fill-rule="evenodd" clip-rule="evenodd" d="M10.2849 6.40039H11.4277V7.46706H10.2849V6.40039ZM3.42773 6.40039H4.57059V7.46706H3.42773V6.40039Z" fill="#D4AF2C"/>
<path fill-rule="evenodd" clip-rule="evenodd" d="M5.71484 6.40039H6.8577V8.00039H5.71484V6.40039ZM8.00056 8.53372H9.14342V10.1337H8.00056V8.53372Z" fill="#AF010D"/>
<path fill-rule="evenodd" clip-rule="evenodd" d="M8 6.40039H9.14286V8.00039H8V6.40039Z" fill="#AE6A3E"/>
<path fill-rule="evenodd" clip-rule="evenodd" d="M5.71484 8.5332H6.8577V10.1332H5.71484V8.5332Z" fill="#FFDA2C"/>
<path fill-rule="evenodd" clip-rule="evenodd" d="M6.8577 6.39967L5.71484 5.33301H9.14342L8.00056 6.39967H6.8577Z" fill="#AF010D"/>
<path fill-rule="evenodd" clip-rule="evenodd" d="M6.85742 4.2666H8.00028V5.33327H6.85742V4.2666Z" fill="#D4AF2C"/>
</g>
<defs>
<clipPath id="clip0_878_12347">
<rect width="24" height="16" fill="white"/>
</clipPath>
</defs>
</svg>
