<svg width="184" height="52" viewBox="0 0 184 52" fill="none" xmlns="http://www.w3.org/2000/svg">
<path d="M74.1303 14.8732C73.5912 14.642 72.9157 14.5088 71.5953 14.5088H66.7624V20.5737H71.3251C72.7105 20.5737 73.5236 20.4066 74.166 20.1088C75.2493 19.5774 75.7897 18.6388 75.7897 17.376C75.7897 16.2402 75.1792 15.3418 74.1303 14.8732ZM72.9501 5.7751C72.4403 5.54392 71.8324 5.40948 70.8523 5.40948H66.7624V11.1427H70.6165C71.8324 11.1427 72.5767 10.9417 73.1158 10.6401C73.9965 10.1438 74.4362 9.30828 74.4362 8.24154C74.4362 7.14214 73.9276 6.24377 72.9501 5.7751ZM62.9414 23.9737V2.01074H71.1212C72.88 2.01074 74.027 2.27711 74.9766 2.70934C77.2401 3.77733 78.2559 5.80903 78.2559 7.67488C78.2559 9.77694 77.3739 11.2068 75.5832 12.276V12.3426C78.1514 12.9068 79.7075 14.6721 79.7075 17.3409C79.7075 20.3061 77.8837 22.5728 74.7726 23.5076C73.6562 23.8393 72.4403 23.9737 70.512 23.9737H62.9414Z" fill="#004280"/>
<path d="M105.82 2.01074H102V23.9737H105.82V2.01074Z" fill="#004280"/>
<path d="M133.55 2.00977H129.734V23.9727H133.55V2.00977Z" fill="#004280"/>
<path d="M145.891 1.81055C148.292 1.81055 150.726 2.37847 152.075 3.04314L152.011 6.6429C150.083 5.71061 148.121 5.10751 145.79 5.10751C143.697 5.10751 141.903 5.74453 141.903 7.4772C141.903 11.9753 153.366 10.1761 153.366 17.6056C153.366 21.7066 149.848 24.3012 144.741 24.3012C141.263 24.3012 138.862 23.335 137.205 22.3412L138.791 19.2741C140.147 20.1084 142.312 21.0068 144.878 21.0068C147.178 21.0068 149.308 20.1373 149.308 18.1408C149.308 13.4379 137.949 15.506 137.949 8.00868C137.949 4.0081 141.192 1.81055 145.891 1.81055Z" fill="#004280"/>
<path d="M171.448 2.01074H175.267V23.9737H171.448V14.5088H160.628V23.9737H156.809V2.01074H160.628V11.0095H171.448V2.01074Z" fill="#004280"/>
<path d="M71.3774 27.8301C73.8104 27.8301 75.6687 28.3 77.5651 29.1293L76.413 32.3295C75.3309 31.8319 73.9099 31.2326 71.7853 31.2326C67.5577 31.2326 64.9233 34.7632 64.9233 39.0616C64.9233 43.3977 67.3882 46.9271 71.7853 46.9271C73.9099 46.9271 75.3309 46.3302 76.413 45.8251L77.5651 49.0291C75.6687 49.8596 73.8104 50.3258 71.3774 50.3258C64.7156 50.3258 60.8984 45.7284 60.8984 39.1295C60.8984 32.9652 64.7156 27.8301 71.3774 27.8301Z" fill="#004280"/>
<path d="M154.959 27.8301C157.394 27.8301 159.252 28.3 161.143 29.1293L159.996 32.3295C158.913 31.8319 157.492 31.2326 155.362 31.2326C151.136 31.2326 148.5 34.7632 148.5 39.0616C148.5 43.3977 150.969 46.9271 155.362 46.9271C157.492 46.9271 158.913 46.3302 159.996 45.8251L161.143 49.0291C159.252 49.8596 157.394 50.3258 154.959 50.3258C148.296 50.3258 144.477 45.7284 144.477 39.1295C144.477 32.9652 148.296 27.8301 154.959 27.8301Z" fill="#004280"/>
<path d="M95.3729 39.0603C95.3729 34.2632 92.6046 31.1974 88.8499 31.1974C85.0991 31.1974 82.3245 34.2632 82.3245 39.0943C82.3245 43.8977 85.0991 46.9597 88.8499 46.9597C92.6059 46.9597 95.3729 43.8977 95.3729 39.0603ZM99.399 38.9912C99.399 45.594 95.1371 50.3245 88.8512 50.3245C82.4978 50.3245 78.3047 45.7586 78.3047 39.1634C78.3047 32.5644 82.5628 27.8301 88.8512 27.8301C95.2097 27.8301 99.399 32.3986 99.399 38.9912Z" fill="#004280"/>
<path d="M101.982 41.7254V28.0312H105.802V41.8611C105.802 45.5237 107.798 46.8933 110.974 46.8933C114.22 46.8933 116.149 45.5237 116.149 41.8611V28.0312H119.968V41.7254C119.968 47.6936 116.517 50.3247 110.91 50.3247C105.397 50.3247 101.982 47.6936 101.982 41.7254Z" fill="#004280"/>
<path d="M127.146 33.9989H127.078C127.146 34.7289 127.179 35.8962 127.179 36.9315V49.9912H123.359V28.0332H127.485L137.824 42.9952H137.894C137.824 42.2614 137.793 41.0941 137.793 40.0588V28.0332H141.61V49.9912H138.233L127.146 33.9989Z" fill="#004280"/>
<path d="M167.956 28.0312H164.143V49.9942H167.956V28.0312Z" fill="#004280"/>
<path d="M175.267 46.5917H183.987V49.9942H171.447V28.0312H175.267V46.5917Z" fill="#004280"/>
<path d="M108.73 2.01367V5.44633H115.86V23.9729H119.68V5.44633H126.813V2.01367H108.73Z" fill="#004280"/>
<path d="M90.0935 5.4131H86.1375V12.0799H89.9227C92.6629 12.0799 93.9464 10.6789 93.9464 8.67865C93.9464 6.87939 92.7636 5.4131 90.0935 5.4131ZM95.1265 23.9736C91.8842 17.3445 91.0379 15.4761 89.6857 15.4761H86.1375V23.9736H82.3203V2.01562H89.8552C95.5994 2.01562 97.7992 5.0148 97.7992 8.34569C97.7992 11.2783 96.0761 13.2446 93.6749 13.9734V14.0098C94.6868 14.5777 95.7676 16.6434 99.4866 23.9736H95.1265Z" fill="#004280"/>
<path d="M25.4812 12.5609C25.4812 19.4978 19.7765 25.1217 12.74 25.1217C5.70469 25.1217 0 19.4978 0 12.5609C0 5.62393 5.70469 0 12.74 0C19.7765 0.00125646 25.4812 5.62393 25.4812 12.5609Z" fill="#00A5E6"/>
<path d="M52.7468 12.5609C52.7468 19.4978 47.0421 25.1217 40.0056 25.1217C32.9703 25.1217 27.2656 19.4978 27.2656 12.5609C27.2656 5.62393 32.9703 0 40.0056 0C47.0421 0.00125646 52.7468 5.62393 52.7468 12.5609Z" fill="#00A5E6"/>
<path d="M25.4812 39.4405C25.4812 46.3787 19.7765 52.0001 12.74 52.0001C5.70469 52.0001 0 46.3787 0 39.4405C0 32.5023 5.70469 26.8809 12.74 26.8809C19.7765 26.8809 25.4812 32.5023 25.4812 39.4405Z" fill="#00A5E6"/>
<path d="M52.7468 39.4405C52.7468 46.3787 47.0421 52.0001 40.0056 52.0001C32.9703 52.0001 27.2656 46.3787 27.2656 39.4405C27.2656 32.5023 32.9703 26.8809 40.0056 26.8809C47.0421 26.8809 52.7468 32.5023 52.7468 39.4405Z" fill="#00A5E6"/>
</svg>
