
<svg style="width:0; height:0; visibility: hidden;" xmlns="http://www.w3.org/2000/svg">
	<defs id="clip0_878_12271">
		<clipPath>
			<rect width="21" height="15" rx="3" fill="white" />
		</clipPath>
	</defs>
	<symbol id="fl-aus" viewBox="0 0 21 15">
		<g>
			<g clip-path="url(#clip0_878_12271)">
				<rect width="21" height="15" rx="3" fill="#1A47B8" />
				<path
					d="M19 0H2C0.89543 0 0 0.89543 0 2V13C0 14.1046 0.89543 15 2 15H19C20.1046 15 21 14.1046 21 13V2C21 0.89543 20.1046 0 19 0Z"
					fill="#1A47B8" />
				<path opacity="0.5" fill-rule="evenodd" clip-rule="evenodd"
					d="M4 11.5L5 11L5.5 10L6 11L7 11.5L6 12L5.5 13L5 12L4 11.5ZM14 3V4H15V3H14ZM17 4V5H18V4H17ZM13 6V7H14V6H13ZM16 7V8H17V7H16ZM15 10V11H16V10H15Z"
					fill="white" />
				<path
					d="M9 1H2C1.44772 1 1 1.44772 1 2V7C1 7.55228 1.44772 8 2 8H9C9.55229 8 10 7.55228 10 7V2C10 1.44772 9.55229 1 9 1Z"
					fill="white" />
				<path fill-rule="evenodd" clip-rule="evenodd"
					d="M5 5H2V4H5V2H6V4H9V5H6V7H5V5ZM7.5 6V7H9V6H7.5ZM7.5 2V3H9V2H7.5ZM2 6V7H3.5V6H2ZM2 2V3H3.5V2H2Z"
					fill="#F93939" />
			</g>

			<use href="#clip0_878_12271"></use>
		</g>
	</symbol>
	<defs id="clip0_878_12001">
		<clipPath>
			<rect width="21" height="15" rx="3" fill="white" />
		</clipPath>
	</defs>
	<symbol id="fl-fin" viewBox="0 0 21 15">
		<g>
			<g clip-path="url(#clip0_878_12001)">
				<rect width="21" height="15" rx="3" fill="white" />
				<path fill-rule="evenodd" clip-rule="evenodd" d="M6 9H0V6H6V0H9V6H21V9H9V15H6V9Z"
					fill="#1A47B8" />
			</g>

			<use href="#clip0_878_12001"></use>
		</g>
	</symbol>
	<!-- Кипр -->
	<symbol id="fl-cy" viewBox="0 0 21 15">
		<g>
			<rect width="21" height="15" fill="white" />
			<path fill-rule="evenodd" clip-rule="evenodd"
				d="M5 6C5 6 6 9 9 9C12 9 15 6 15 6H13L16 3L10 5L8 3L7 5L5 6Z" fill="#FF6C2D" />
			<path fill-rule="evenodd" clip-rule="evenodd"
				d="M5 9L10 11V12L4 10L5 9ZM16 9L11 11V12L17 10L16 9ZM10 11H11V13H10V11Z"
				fill="#0A6A30" />
		</g>
	
	</symbol>
	<!-- Китай -->
	<defs id="clip0_878_11184">
		<clipPath>
			<rect width="21" height="15" fill="white" />
		</clipPath>
	</defs>
	<symbol id="fl-china" viewBox="0 0 21 15">
		<g>
			<g clip-path="url(#clip0_878_11184)">
				<rect width="21" height="15" fill="#F93939" />
				<path
					d="M19 0H2C0.89543 0 0 0.89543 0 2V13C0 14.1046 0.89543 15 2 15H19C20.1046 15 21 14.1046 21 13V2C21 0.89543 20.1046 0 19 0Z"
					fill="#F93939" />
				<path fill-rule="evenodd" clip-rule="evenodd"
					d="M5.49812 7.23L4.02812 8.003L4.30812 6.366L3.12012 5.206L4.76312 4.969L5.49812 3.479L6.23212 4.969L7.87512 5.206L6.68512 6.366L6.96712 8.002L5.49812 7.23ZM9.00012 3H10.0001V4H9.00012V3ZM10.0001 5H11.0001V6H10.0001V5ZM10.0001 7H11.0001V8H10.0001V7ZM9.00012 9H10.0001V10H9.00012V9Z"
					fill="#FFDA2C" />
			</g>
			<use href="#clip0_878_11184"></use>
		</g>
	</symbol>
	<symbol id="fl-swet" viewBox="0 0 21 15">
		<g>
			<rect width="21" height="15" fill="#F93939" />
			<path fill-rule="evenodd" clip-rule="evenodd" d="M9 6H6V9H9V12H12V9H15V6H12V3H9V6Z"
				fill="white" />
		</g>
	</symbol>
	<defs id="clip0_878_10576">
		<clipPath>
			<rect width="21" height="15" fill="white" />
		</clipPath>
	</defs>
	<symbol id="fl-spain" viewBox="0 0 21 15">
		<g>
			<g clip-path="url(#clip0_878_10576)">
				<rect width="21" height="15" fill="#F93939" />
				<path
					d="M19 0H2C0.89543 0 0 0.89543 0 2V13C0 14.1046 0.89543 15 2 15H19C20.1046 15 21 14.1046 21 13V2C21 0.89543 20.1046 0 19 0Z"
					fill="#F93939" />
				<path fill-rule="evenodd" clip-rule="evenodd" d="M0 4H21V11H0V4Z" fill="#FFDA2C" />
				<path fill-rule="evenodd" clip-rule="evenodd"
					d="M9 6.22201V8.742C9 9.442 8.328 10.002 7.5 10.002H5.5C4.674 10 4 9.43701 4 8.74001V6.22C4 5.648 4.448 5.17001 5.064 5.01501C5.25 4.49501 5.822 4.96101 6.5 4.96101C7.182 4.96101 7.75 4.498 7.936 5.016C8.55 5.175 9 5.65401 9 6.22201Z"
					fill="#D4AF2C" />
				<path fill-rule="evenodd" clip-rule="evenodd" d="M9 7H10V10H9V7ZM3 7H4V10H3V7Z"
					fill="#CBCBCB" />
				<path fill-rule="evenodd" clip-rule="evenodd" d="M9 9H10V10H9V9ZM3 9H4V10H3V9Z"
					fill="#1A47B8" />
				<path fill-rule="evenodd" clip-rule="evenodd" d="M9 6H10V7H9V6ZM3 6H4V7H3V6Z"
					fill="#D4AF2C" />
				<path fill-rule="evenodd" clip-rule="evenodd" d="M5 6H6V7.5H5V6ZM7 8H8V9.5H7V8Z"
					fill="#AF010D" />
				<path fill-rule="evenodd" clip-rule="evenodd" d="M7 6H8V7.5H7V6Z" fill="#AE6A3E" />
				<path fill-rule="evenodd" clip-rule="evenodd" d="M5 8H6V9.5H5V8Z" fill="#FFDA2C" />
				<path fill-rule="evenodd" clip-rule="evenodd" d="M6 6L5 5H8L7 6H6Z" fill="#AF010D" />
				<path fill-rule="evenodd" clip-rule="evenodd" d="M6 4H7V5H6V4Z" fill="#D4AF2C" />
			</g>
			<use href="#clip0_878_10576"></use>
		</g>
	</symbol>
	<defs id="clip0_878_11284">
		<clipPath>
			<rect width="21" height="15" fill="white" />
		</clipPath>
	</defs>
	<symbol id="fl-belg" viewBox="0 0 21 15">
		<g>
			<g clip-path="url(#clip0_878_11284)">
				<path
					d="M19 0H2C0.89543 0 0 0.89543 0 2V13C0 14.1046 0.89543 15 2 15H19C20.1046 15 21 14.1046 21 13V2C21 0.89543 20.1046 0 19 0Z"
					fill="#FFDA2C" />
				<path fill-rule="evenodd" clip-rule="evenodd" d="M0 0H7V15H0V0Z" fill="#151515" />
				<path fill-rule="evenodd" clip-rule="evenodd" d="M14 0H21V15H14V0Z" fill="#F93939" />
			</g>
			<use href="#clip0_878_11284"></use>
		</g>
	</symbol>
	<defs id="clip0_878_10484">
		<clipPath>
			<rect width="21" height="15" fill="white" />
		</clipPath>
	</defs>
	<symbol id="fl-usa" viewBox="0 0 21 15">
		<g>
			<g clip-path="url(#clip0_878_10484)">
				<rect width="21" height="15" fill="white" />
				<path fill-rule="evenodd" clip-rule="evenodd" d="M0 0H9V7H0V0Z" fill="#1A47B8" />
				<path fill-rule="evenodd" clip-rule="evenodd"
					d="M9 0V1H21V0H9ZM9 2V3H21V2H9ZM9 4V5H21V4H9ZM9 6V7H21V6H9ZM0 8V9H21V8H0ZM0 10V11H21V10H0ZM0 12V13H21V12H0ZM0 14V15H21V14H0Z"
					fill="#F93939" />
				<path fill-rule="evenodd" clip-rule="evenodd"
					d="M1 1V2H2V1H1ZM3 1V2H4V1H3ZM5 1V2H6V1H5ZM7 1V2H8V1H7ZM6 2V3H7V2H6ZM4 2V3H5V2H4ZM2 2V3H3V2H2ZM1 3V4H2V3H1ZM3 3V4H4V3H3ZM5 3V4H6V3H5ZM7 3V4H8V3H7ZM1 5V6H2V5H1ZM3 5V6H4V5H3ZM5 5V6H6V5H5ZM7 5V6H8V5H7ZM6 4V5H7V4H6ZM4 4V5H5V4H4ZM2 4V5H3V4H2Z"
					fill="white" />
			</g>
			<use href="#clip0_878_10484"></use>
		</g>
	</symbol>
	<defs id="clip0_878_10684">
		<clipPath>
			<rect width="21" height="15" fill="white" />
		</clipPath>
	</defs>
	<symbol id="fl-ru" viewBox="0 0 21 15">
		<g>
			<g clip-path="url(#clip0_878_10684)">
				<rect width="21" height="15" fill="#1A47B8" />
				<path fill-rule="evenodd" clip-rule="evenodd" d="M0 10H21V15H0V10Z" fill="#F93939" />
				<path fill-rule="evenodd" clip-rule="evenodd" d="M0 0H21V5H0V0Z" fill="white" />
			</g>
			<use href="#clip0_878_10684"></use>
		</g>
	</symbol>
	<defs id="clip0_878_10488">
		<clipPath >
			<rect width="21" height="15" fill="white" />
		</clipPath>
	</defs>
	<symbol id="fl-uk" viewBox="0 0 21 15">
		<g>
			<g clip-path="url(#clip0_878_10488)">
				<rect width="21" height="15" fill="#1A47B8" />
				<path fill-rule="evenodd" clip-rule="evenodd"
					d="M2.23397 0H0V2.5L18.7539 15L21 15V12.5L2.23397 0Z" fill="white" />
				<path d="M0.745098 0L21 13.5354V15H20.2724L0 1.45056V0H0.745098Z" fill="#F93939" />
				<path fill-rule="evenodd" clip-rule="evenodd"
					d="M19.0001 0H21.0001V2.5C21.0001 2.5 8.00988 10.8281 2.00008 15H7.62939e-05V12.5L19.0001 0Z"
					fill="white" />
				<path d="M21 0H20.3218L0 13.5471V15H0.745098L21 1.46151V0Z" fill="#F93939" />
				<path fill-rule="evenodd" clip-rule="evenodd"
					d="M7.63708 0H13.3804V4.62682H21V10.3701H13.3804V15H7.63708V10.3701H0V4.62682H7.63708V0Z"
					fill="white" />
				<path fill-rule="evenodd" clip-rule="evenodd"
					d="M8.8421 0H12.1579V5.76923H21V9.23077H12.1579V15H8.8421V9.23077H0V5.76923H8.8421V0Z"
					fill="#F93939" />
			</g>
			<use href="#clip0_878_10488"></use>
		</g>
	</symbol>
	<defs id="clip0_878_11055">
		<clipPath>
			<rect width="21" height="15" fill="white" />
		</clipPath>
	</defs>
	<symbol id="fl-fr" viewBox="0 0 21 15">
		<g>
			<g clip-path="url(#clip0_878_11055)">
				<rect width="21" height="15" fill="white" />
				<path fill-rule="evenodd" clip-rule="evenodd" d="M0 0H7V15H0V0Z" fill="#1A47B8" />
				<path fill-rule="evenodd" clip-rule="evenodd" d="M14 0H21V15H14V0Z" fill="#F93939" />
			</g>
			<use href="#clip0_878_11055"></use>
		</g>
	</symbol>
	<defs id="clip0_878_11208">
		<clipPath>
			<rect width="21" height="15" fill="white" />
		</clipPath>
	</defs>
	<symbol id="fl-can" viewBox="0 0 21 15">
		<g>
			<g clip-path="url(#clip0_878_11208)">
				<rect width="21" height="15" fill="white" />
				<path
					d="M10.7059 11.6176H10.2941L10.3971 9.97059C10.3912 9.88385 10.3496 9.86105 10.1912 9.86765L8.54412 10.0735C8.54412 10.0735 8.85294 9.66176 8.85294 9.45588C8.85294 9.25 7 7.91176 7 7.91176C7 7.91176 7.41176 7.80882 7.51471 7.70588C7.61765 7.60294 7.10294 6.47059 7.10294 6.47059C7.10294 6.47059 8.14906 6.88235 8.23529 6.77941C8.32153 6.67647 8.44118 6.26471 8.44118 6.26471C8.44118 6.26471 9.26471 7.19118 9.47059 7.19118C9.67647 7.19118 9.05882 4.92647 9.05882 4.92647C9.05882 4.92647 9.57353 5.33824 9.77941 5.33824C9.98529 5.33824 10.5 4 10.5 4C10.5 4 11.0147 5.33824 11.1176 5.33824C11.2206 5.33824 11.9412 4.92647 11.9412 4.92647C11.9412 4.92647 11.4265 7.08824 11.5294 7.19118C11.6324 7.29412 12.5588 6.26471 12.5588 6.26471C12.5588 6.26471 12.6618 6.67647 12.7647 6.77941C12.8676 6.88235 13.8971 6.47059 13.8971 6.47059C13.8971 6.47059 13.3824 7.60294 13.4853 7.70588C13.5882 7.80882 14 7.91176 14 7.91176C14 7.91176 12.1471 9.25 12.1471 9.45588C12.1471 9.66176 12.3529 10.0735 12.3529 10.0735L10.8088 9.86765C10.6847 9.83206 10.6417 9.85907 10.6029 9.97059L10.7059 11.6176Z"
					fill="#F93939" />
				<rect x="16" width="5" height="15" fill="#F93939" />
				<rect width="5" height="15" fill="#F93939" />
			</g>
			<use href="#clip0_878_11208"></use>
		</g>
	</symbol>
	<defs id="clip0_878_11312">
		<clipPath>
			<rect width="21" height="15" fill="white" />
		</clipPath>
	</defs>
	<symbol id="fl-austria" viewBox="0 0 21 15">
		<g>
			<g clip-path="url(#clip0_878_11312)">
				<path
					d="M19 0H2C0.89543 0 0 0.89543 0 2V13C0 14.1046 0.89543 15 2 15H19C20.1046 15 21 14.1046 21 13V2C21 0.89543 20.1046 0 19 0Z"
					fill="white" />
				<path fill-rule="evenodd" clip-rule="evenodd" d="M0 10H21V15H0V10ZM0 0H21V5H0V0Z"
					fill="#F93939" />
			</g>
			<use href="#clip0_878_11312"></use>
		</g>
	</symbol>
	<defs id="clip0_878_11231">
		<clipPath>
			<rect width="21" height="15" fill="white" />
		</clipPath>
	</defs>
	<symbol id="fl-bulg" viewBox="0 0 21 15">
		<g>
			<g clip-path="url(#clip0_878_11231)">
				<path
					d="M19 0H2C0.89543 0 0 0.89543 0 2V13C0 14.1046 0.89543 15 2 15H19C20.1046 15 21 14.1046 21 13V2C21 0.89543 20.1046 0 19 0Z"
					fill="#249F58" />
				<path fill-rule="evenodd" clip-rule="evenodd" d="M0 10H21V15H0V10Z" fill="#F93939" />
				<path fill-rule="evenodd" clip-rule="evenodd" d="M0 0H21V5H0V0Z" fill="white" />
			</g>
			<use href="#clip0_878_11231"></use>
		</g>
	</symbol>
	<defs id="clip0_878_10983">
		<clipPath>
			<rect width="21" height="15" fill="white" />
		</clipPath>
	</defs>
	<symbol id="fl-hun" viewBox="0 0 21 15">
		<g>
			<g clip-path="url(#clip0_878_10983)">
				<rect width="21" height="15" fill="white" />
				<path fill-rule="evenodd" clip-rule="evenodd" d="M0 10H21V15H0V10Z" fill="#249F58" />
				<path fill-rule="evenodd" clip-rule="evenodd" d="M0 0H21V5H0V0Z" fill="#F93939" />
			</g>
			<use href="#clip0_878_10983"></use>
		</g>
	</symbol>
	<defs id="clip0_878_10955">
		<clipPath>
			<rect width="21" height="15" fill="white" />
		</clipPath>
	</defs>
	<symbol id="fl-ital" viewBox="0 0 21 15">
		<g>
			<g clip-path="url(#clip0_878_10955)">
				<rect width="21" height="15" fill="white" />
				<path fill-rule="evenodd" clip-rule="evenodd" d="M0 0H7V15H0V0Z" fill="#249F58" />
				<path fill-rule="evenodd" clip-rule="evenodd" d="M14 0H21V15H14V0Z" fill="#F93939" />
			</g>
			<use href="#clip0_878_10955"></use>
		</g>
	</symbol>
	<defs id="clip0_878_10960">
		<clipPath>
			<rect width="21" height="15" fill="white" />
		</clipPath>
	</defs>
	<symbol id="fl-irl" viewBox="0 0 21 15">
		<g>
			<g clip-path="url(#clip0_878_10960)">
				<path
					d="M19 0H2C0.89543 0 0 0.89543 0 2V13C0 14.1046 0.89543 15 2 15H19C20.1046 15 21 14.1046 21 13V2C21 0.89543 20.1046 0 19 0Z"
					fill="white" />
				<path fill-rule="evenodd" clip-rule="evenodd" d="M0 0H7V15H0V0Z" fill="#249F58" />
				<path fill-rule="evenodd" clip-rule="evenodd" d="M14 0H21V15H14V0Z" fill="#FF6C2D" />
			</g>
			<use href="#clip0_878_10960"></use>
		</g>
	</symbol>
	<defs id="clip0_878_11041">
		<clipPath>
			<rect width="21" height="15" fill="white" />
		</clipPath>
	</defs>
	<symbol id="fl-de" viewBox="0 0 21 15">
		<g>
			<g clip-path="url(#clip0_878_11041)">
				<rect width="21" height="15" fill="#F93939" />
				<path fill-rule="evenodd" clip-rule="evenodd" d="M0 10H21V15H0V10Z" fill="#FFDA2C" />
				<path fill-rule="evenodd" clip-rule="evenodd" d="M0 0H21V5H0V0Z" fill="#151515" />
			</g>
			<use href="#clip0_878_11041"></use>
		</g>
	</symbol>
	<symbol id="fl-kor" viewBox="0 0 21 15">
		<g>
			<rect width="21" height="15" fill="white" />
			<path fill-rule="evenodd" clip-rule="evenodd"
				d="M14 7.5C14 9.433 12.433 11 10.5 11C8.567 11 7 9.433 7 7.5C7 6.38 9.35 5.91 11.328 6.087C11.538 6.031 11.764 6 12 6C13.105 6 14 6.672 14 7.5Z"
				fill="#232C80" />
			<path fill-rule="evenodd" clip-rule="evenodd"
				d="M10 7C10 7 10.895 6 12 6C13.105 6 14 6.672 14 7.5C14 5.567 12.433 4 10.5 4C9.103 4 7.897 4.818 7.336 6.002C7 7 7 7.292 7 7.5C7.5 8 8.056 8 8.5 8C8.944 8 9.343 7.807 9.618 7.5L10 7Z"
				fill="#F93939" />
			<path fill-rule="evenodd" clip-rule="evenodd"
				d="M15 5H17L15 3H14L15 5ZM6 5H4L6 3H7L6 5ZM15 10H17L15 12H14L15 10ZM6 10H4L6 12H7L6 10Z"
				fill="#151515" />
		</g>
	</symbol>
	<defs id="clip0_878_10911">
		<clipPath>
			<rect width="21" height="15" fill="white" />
		</clipPath>
	</defs>
	<symbol id="fl-latv" viewBox="0 0 21 15">
		<g>
			<g clip-path="url(#clip0_878_10911)">
				<rect width="21" height="15" fill="white" />
				<path fill-rule="evenodd" clip-rule="evenodd" d="M0 9H21V15H0V9ZM0 0H21V6H0V0Z"
					fill="#AF010D" />
			</g>
			<use href="#clip0_878_10911"></use>
		</g>
	</symbol>
	<defs id="clip0_878_10781">
		<clipPath>
			<rect width="21" height="15" fill="white" />
		</clipPath>
	</defs>
	<symbol id="fl-netherl" viewBox="0 0 21 15">
		<g>
			<g clip-path="url(#clip0_878_10781)">
				<rect width="21" height="15" fill="white" />
				<path fill-rule="evenodd" clip-rule="evenodd" d="M0 10H21V15H0V10Z" fill="#1E448D" />
				<path fill-rule="evenodd" clip-rule="evenodd" d="M0 0H21V5H0V0Z" fill="#B01923" />
			</g>
			<use href="#clip0_878_10781"></use>
		</g>
	</symbol>
	<symbol id="fl-malasia" viewBox="0 0 21 15">
		<g>
			<rect width="21" height="15" fill="white" />
			<rect width="21" height="1.07692" fill="#AF010D" />
			<rect y="2.15384" width="21" height="1.07692" fill="#AF010D" />
			<rect y="4.30769" width="21" height="1.07692" fill="#AF010D" />
			<rect y="6.46153" width="21" height="1.07692" fill="#AF010D" />
			<rect y="8.61539" width="21" height="1.07692" fill="#AF010D" />
			<rect y="10.7692" width="21" height="1.07692" fill="#AF010D" />
			<rect y="12.9231" width="21" height="1.07692" fill="#AF010D" />
			<path fill-rule="evenodd" clip-rule="evenodd" d="M0 0H11V8.62H0V0Z" fill="#1A47B8" />
			<path fill-rule="evenodd" clip-rule="evenodd" d="M7 4H8V5H7V4Z" fill="#FFDA2C" />
			<path fill-rule="evenodd" clip-rule="evenodd"
				d="M7.5 6C7.044 6.607 6.318 7 5.5 7C4.12 7 3 5.88 3 4.5C3 3.12 4.12 2 5.5 2C6.318 2 7.044 2.393 7.5 3H6C5.172 3 4.5 3.672 4.5 4.5C4.5 5.328 5.172 6 6 6H7.5Z"
				fill="#FFDA2C" />
		</g>
	</symbol>
	<symbol id="fl-sing" viewBox="0 0 21 15">
		<g>
			<rect width="21" height="15" rx="3" fill="white" />
			<path fill-rule="evenodd" clip-rule="evenodd" d="M0 0H21V9H0V0Z" fill="#F93939" />
			<path fill-rule="evenodd" clip-rule="evenodd"
				d="M6 7.863C5.71 7.953 5.4 8 5.077 8C3.377 8 2 6.657 2 5C2 3.343 3.378 2 5.077 2C5.399 2 5.709 2.048 6 2.137C4.752 2.52 3.846 3.657 3.846 5C3.846 6.343 4.752 7.48 6 7.863ZM8 3H9V4H8V3ZM10 4H11V5H10V4ZM9 6H10V7H9V6ZM6 4H7V5H6V4ZM7 6H8V7H7V6Z"
				fill="white" />
		</g>
	</symbol>
	<defs id="clip0_878_11559">
		<clipPath >
			<rect width="21" height="15" rx="3" fill="white" />
		</clipPath>
	</defs>
	<symbol id="fl-slov" viewBox="0 0 21 15">
		<g>
			<g clip-path="url(#clip0_878_11559)">
				<rect width="21" height="15" rx="3" fill="#1A47B8" />
				<path fill-rule="evenodd" clip-rule="evenodd" d="M0 10H21V15H0V10Z" fill="#F93939" />
				<path fill-rule="evenodd" clip-rule="evenodd"
					d="M0 0H21V5H0V0ZM9.93 10H10V5H3V10H3.07C3.024 10.162 3 10.33 3 10.5C3 11.88 6.5 13 6.5 13C6.5 13 10 11.88 10 10.5C10 10.33 9.976 10.162 9.93 10Z"
					fill="white" />
				<path fill-rule="evenodd" clip-rule="evenodd"
					d="M9 10V4H4V10C4 11.105 6.5 12 6.5 12C6.5 12 9 11.105 9 10Z" fill="#F93939" />
				<path fill-rule="evenodd" clip-rule="evenodd"
					d="M6 8V7H5V6H6V5H7V6H8V7H7V8H8.5V9H7V10H6V9H4.5V8H6Z" fill="white" />
				<path fill-rule="evenodd" clip-rule="evenodd"
					d="M6.5 12C6.5 12 9 11.105 9 10C9 8.89501 8 9.00001 6.5 10C5 9.00001 4 8.89501 4 10C4 11.105 6.5 12 6.5 12Z"
					fill="#1A47B8" />
			</g>
			<use href="#clip0_878_11559"></use>
		</g>
	</symbol>
	<defs id="clip0_878_11582">
		<clipPath >
			<rect width="21" height="15" rx="3" fill="white" />
		</clipPath>
	</defs>
	<symbol id="fl-serb" viewBox="0 0 21 15">
		<g>
			<g clip-path="url(#clip0_878_11582)">
				<rect width="21" height="15" rx="3" fill="#1A47B8" />
				<path fill-rule="evenodd" clip-rule="evenodd" d="M0 10H21V15H0V10Z" fill="white" />
				<path fill-rule="evenodd" clip-rule="evenodd"
					d="M0 0H21V5H0V0ZM8 10V5H4V10C4 11.105 4.895 12 6 12C7.105 12 8 11.105 8 10Z"
					fill="#F93939" />
				<path fill-rule="evenodd" clip-rule="evenodd"
					d="M5 6L4 7L6 8L5 10L6 12L7 10L6 8L8 7L7 6L6 7L5 6Z" fill="white" />
				<path fill-rule="evenodd" clip-rule="evenodd" d="M6 8L4 9H8L6 8Z" fill="#88605F" />
				<path fill-rule="evenodd" clip-rule="evenodd" d="M5 6H4V7L5 6ZM7 6H8V7L7 6Z"
					fill="#FFDA2C" />
				<path fill-rule="evenodd" clip-rule="evenodd"
					d="M5 5L4 4C4 4 5 3 6 3C7 3 8 4 8 4L7 5H5Z" fill="#FFDA2C" />
				<path fill-rule="evenodd" clip-rule="evenodd" d="M6 3L5 4L6 5L7 4L6 3Z"
					fill="#A75835" />
			</g>
			<use href="#clip0_878_11582"></use>
		</g>
	</symbol>
	<symbol id="fl-port" viewBox="0 0 21 15">
		<g>
			<rect width="21" height="15" rx="3" fill="#F93939" />
			<path fill-rule="evenodd" clip-rule="evenodd" d="M0 0H7V15H0V0Z" fill="#249F58" />
			<path
				d="M7 10C8.65685 10 10 8.65685 10 7C10 5.34315 8.65685 4 7 4C5.34315 4 4 5.34315 4 7C4 8.65685 5.34315 10 7 10Z"
				fill="#FFDA2C" />
			<path fill-rule="evenodd" clip-rule="evenodd"
				d="M9 8V5H5V8C5 8.552 5.895 9 7 9C8.105 9 9 8.552 9 8Z" fill="#F93939" />
			<path fill-rule="evenodd" clip-rule="evenodd" d="M6 6H8V8H6V6Z" fill="white" />
			<path fill-rule="evenodd" clip-rule="evenodd" d="M6 6H7V7H6V6ZM7 7H8V8H7V7Z"
				fill="#1A47B8" />
		</g>
	</symbol>
	<symbol id="fl-malta" viewBox="0 0 21 15">
		<g>
			<rect width="21" height="15" rx="3" fill="#AF010D" />
			<path fill-rule="evenodd" clip-rule="evenodd" d="M0 0H11V15H0V0Z" fill="white" />
			<path fill-rule="evenodd" clip-rule="evenodd" d="M3 3H2V4H3V5H4V4H5V3H4V2H3V3Z"
				fill="#CBCBCB" />
		</g>
	</symbol>
	<symbol id="fl-turk" viewBox="0 0 21 15">
		<g>
			<rect width="21" height="15" rx="3" fill="#F93939" />
			<path fill-rule="evenodd" clip-rule="evenodd"
				d="M14.002 8.65201L12.84 9.262L13.062 7.969L12.122 7.052L13.422 6.862L14.002 5.686L14.582 6.863L15.882 7.053L14.942 7.968L15.164 9.261"
				fill="white" />
			<path fill-rule="evenodd" clip-rule="evenodd"
				d="M9.5 11C11.433 11 13 9.433 13 7.5C13 5.567 11.433 4 9.5 4C7.567 4 6 5.567 6 7.5C6 9.433 7.567 11 9.5 11ZM10.5 10C11.88 10 13 8.88 13 7.5C13 6.12 11.88 5 10.5 5C9.12 5 8 6.12 8 7.5C8 8.88 9.12 10 10.5 10Z"
				fill="white" />
		</g>
	</symbol>
	<defs id="clip0_878_11479">
		<clipPath >
			<rect width="21" height="15" rx="3" fill="white" />
		</clipPath>
	</defs>
	<symbol id="fl-thail" viewBox="0 0 21 15">
		<g>
			<g clip-path="url(#clip0_878_11479)">
				<rect width="21" height="15" rx="3" fill="white" />
				<path fill-rule="evenodd" clip-rule="evenodd" d="M0 0H21V3H0V0ZM0 12H21V15H0V12Z"
					fill="#F93939" />
				<path fill-rule="evenodd" clip-rule="evenodd" d="M0 5H21V10H0V5Z" fill="#232C80" />
			</g>
			<use href="#clip0_878_11479"></use>
		</g>
	</symbol>
	<defs id="clip0_878_10703">
		<clipPath >
			<rect width="21" height="15" fill="white" />
		</clipPath>
	</defs>
	<symbol id="fl-phil" viewBox="0 0 21 15">
		<g>
			<g clip-path="url(#clip0_878_10703)">
				<rect width="21" height="15" fill="#F93939" />
				<path fill-rule="evenodd" clip-rule="evenodd" d="M0 0H21V8H0V0Z" fill="#1A47B8" />
				<path fill-rule="evenodd" clip-rule="evenodd" d="M0 0V15.033L10 7.5L0 0Z"
					fill="white" />
				<path fill-rule="evenodd" clip-rule="evenodd"
					d="M4.485 7.985C5.355 7.93 6 7.735 6 7.5C6 7.266 5.355 7.07 4.485 7.015C4.43 6.145 4.235 5.5 4 5.5C3.766 5.5 3.57 6.145 3.515 7.015C2.645 7.07 2 7.265 2 7.5C2 7.734 2.645 7.93 3.515 7.985C3.569 8.855 3.765 9.5 4 9.5C4.234 9.5 4.43 8.855 4.485 7.985Z"
					fill="#FFDA2C" />
				<path
					d="M7.5 8C7.77614 8 8 7.77614 8 7.5C8 7.22386 7.77614 7 7.5 7C7.22386 7 7 7.22386 7 7.5C7 7.77614 7.22386 8 7.5 8Z"
					fill="#FFDA2C" />
				<path
					d="M2.5 5C2.77614 5 3 4.77614 3 4.5C3 4.22386 2.77614 4 2.5 4C2.22386 4 2 4.22386 2 4.5C2 4.77614 2.22386 5 2.5 5Z"
					fill="#FFDA2C" />
				<path
					d="M2.5 11C2.77614 11 3 10.7761 3 10.5C3 10.2239 2.77614 10 2.5 10C2.22386 10 2 10.2239 2 10.5C2 10.7761 2.22386 11 2.5 11Z"
					fill="#FFDA2C" />
			</g>
			<use href="#clip0_878_10703"></use>
		</g>
	</symbol>
	<defs id="clip0_878_11144">
		<clipPath >
			<rect width="21" height="15" fill="white" />
		</clipPath>
	</defs>
	<symbol id="fl-czech" viewBox="0 0 21 15">
		<g>
			<g clip-path="url(#clip0_878_11144)">
				<rect width="21" height="15" fill="#F93939" />
				<path fill-rule="evenodd" clip-rule="evenodd" d="M0 0H21V7H0V0Z" fill="white" />
				<path fill-rule="evenodd" clip-rule="evenodd" d="M0 0L10 7.5L0 15V0Z" fill="#1A47B8" />
			</g>
			<use href="#clip0_878_11144"></use>
		</g>
	</symbol>

	<defs id="clip0_878_10495">
		<clipPath >
			<rect width="21" height="15" fill="white" />
		</clipPath>
	</defs>
	<symbol id="fl-oae" viewBox="0 0 21 15">
		<g>
			<g clip-path="url(#clip0_878_10495)">
				<path
					d="M19 0H2C0.89543 0 0 0.89543 0 2V13C0 14.1046 0.89543 15 2 15H19C20.1046 15 21 14.1046 21 13V2C21 0.89543 20.1046 0 19 0Z"
					fill="white" />
				<path fill-rule="evenodd" clip-rule="evenodd" d="M0 10H21V15H0V10Z" fill="#151515" />
				<path fill-rule="evenodd" clip-rule="evenodd" d="M0 0H21V5H0V0Z" fill="#249F58" />
				<path fill-rule="evenodd" clip-rule="evenodd" d="M0 0V15H6V0H0Z" fill="#F93939" />
			</g>
			<use href="#clip0_878_10495"></use>
		</g>
	</symbol>
	
</svg>
