
<svg style="width:0; height:0; visibility: hidden;" xmlns="http://www.w3.org/2000/svg">

	<symbol id="svg-play" viewBox="0 0 384 512">
		
			<path fill="#ffffff"
				d="M73 39c-14.8-9.1-33.4-9.4-48.5-.9S0 62.6 0 80V432c0 17.4 9.4 33.4 24.5 41.9s33.7 8.1 48.5-.9L361 297c14.3-8.7 23-24.2 23-41s-8.7-32.2-23-41L73 39z" />
		
	
	</symbol>
	<symbol id="svg-search" viewBox="0 0 18 19">
		<g>
			<ellipse cx="8.16667" cy="8.16667" rx="6.66667" ry="6.66667" stroke="currentColor"
				stroke-width="1.5" stroke-linecap="round" stroke-linejoin="round" />
			<path d="M12.75 13.1318L16.9167 17.2985" stroke="currentColor" stroke-width="1.5"
				stroke-linecap="round" stroke-linejoin="round" />
		</g>
	</symbol>
	<symbol id="svg-chevron-down" viewBox="0 0 11 6">
		<g>
			<path d="M1 1L4.70276 4.29135C5.15743 4.69549 5.84257 4.69549 6.29724 4.29135L10 1"
				stroke="currentColor" stroke-width="1.5" stroke-linecap="round" />
		</g>
	</symbol>
	<symbol id="svg-chevron" viewBox="0 0 7 14">
		<g>

			<path
				d="M6.125 12.625L1.83365 7.79724C1.42951 7.34257 1.42951 6.65743 1.83365 6.20276L6.125 1.375"
				stroke="currentColor" stroke-width="1.5" stroke-linecap="round" />
			
		</g>
	</symbol>
	<symbol id="svg-cross" viewBox="0 0 16 16">
		<g>

			<path
				d="M1.53033 0.469673C1.23744 0.17678 0.762563 0.17678 0.46967 0.469673C0.176777 0.762566 0.176777 1.23744 0.46967 1.53033L1.53033 0.469673ZM14.4697 15.5303C14.7626 15.8232 15.2374 15.8232 15.5303 15.5303C15.8232 15.2374 15.8232 14.7626 15.5303 14.4697L14.4697 15.5303ZM0.469697 14.4697C0.176804 14.7626 0.176804 15.2374 0.469697 15.5303C0.76259 15.8232 1.23746 15.8232 1.53036 15.5303L0.469697 14.4697ZM15.5304 1.53033C15.8232 1.23744 15.8232 0.762563 15.5304 0.46967C15.2375 0.176777 14.7626 0.176777 14.4697 0.46967L15.5304 1.53033ZM8.00003 8L7.4697 7.46967L8.00003 8ZM0.46967 1.53033L14.4697 15.5303L15.5303 14.4697L1.53033 0.469673L0.46967 1.53033ZM1.53036 15.5303L8.53036 8.53033L7.4697 7.46967L0.469697 14.4697L1.53036 15.5303ZM8.53036 8.53033L15.5304 1.53033L14.4697 0.46967L7.4697 7.46967L8.53036 8.53033Z"
				fill="currentColor" />
			
		</g>
	</symbol>
	<symbol id="svg-arrow" viewBox="0 0 16 13">
		<g>
			<path
				d="M9.75 12L14.3409 7.19048C14.7098 6.80405 14.7098 6.19595 14.3409 5.80952L9.75 1"
				stroke="currentColor" stroke-width="1.5" stroke-linecap="round" />
			<path d="M13.25 6.5L1 6.5" stroke="currentColor" stroke-width="1.5"
				stroke-linecap="round" />
			
		</g>
	</symbol>
	<symbol id="svg-check" viewBox="0 0 15 11">
		<g>

			<path d="M14 1L5.0625 10L1 5.90909" stroke="currentColor" stroke-width="1.8"
				stroke-linecap="round" stroke-linejoin="round" />
			
		</g>
	</symbol>

	<mask id="mask0_1074_10834" style="mask-type:luminance" maskUnits="userSpaceOnUse" x="0"
		y="0" width="105" height="32">
		<path d="M104.471 0H0V32H104.471V0Z" fill="white" />
	</mask>
	<symbol id="logo" viewBox="0 0 105 32">
		
			
				<path
					d="M8.27826 16.1747C3.71388 16.1747 0 12.5465 0 8.08739C0 3.62824 3.71388 0 8.27826 0C12.8426 0 16.5565 3.62824 16.5565 8.08739C16.5565 12.5465 12.8426 16.1747 8.27826 16.1747ZM8.27826 3.102C5.4716 3.102 3.17523 5.34542 3.17523 8.08739C3.17523 10.8293 5.4716 13.0728 8.27826 13.0728C11.0849 13.0728 13.3813 10.8293 13.3813 8.08739C13.3813 5.31772 11.0849 3.102 8.27826 3.102Z"
					fill="#2DBFCA" />
				<path
					d="M26.5089 11.7983H21.8311L20.9522 14.4848H18.1172L22.8234 1.41211H25.545L30.2227 14.4848H27.3027L26.5089 11.7983ZM22.5682 9.61025H25.8001L25.2898 7.94846L24.2408 4.48642H24.1558L23.1352 7.89307L22.5682 9.61025Z"
					fill="white" />
				<path d="M31.2422 14.4848V1.41211H33.8504V12.1584H40.4844V14.4848H31.2422Z"
					fill="white" />
				<path d="M41.7578 14.4848V1.41211H44.3944V12.1584H51.0283V14.4848H41.7578Z"
					fill="white" />
				<path
					d="M54.5712 2.65846V14.5126H53.2103V2.65846H49.1562V1.41211H58.5685V2.65846H54.5712Z"
					fill="white" />
				<path
					d="M60.5273 14.4848V1.41211H69.3159V2.63075H61.8882V7.31146H68.267V8.5301H61.8882V13.2939H69.3159V14.4848H60.5273Z"
					fill="white" />
				<path
					d="M72.8022 14.4848H71.4414V1.41211H76.856C77.5087 1.41211 78.0753 1.5229 78.5572 1.74447C79.0392 1.96604 79.4075 2.2707 79.7194 2.63075C80.0313 2.99081 80.2585 3.40626 80.4003 3.8771C80.5422 4.34793 80.6268 4.79108 80.6268 5.26192C80.6268 5.62198 80.5704 5.98203 80.4568 6.36978C80.3431 6.72983 80.1731 7.08988 79.9748 7.39455C79.7766 7.69924 79.4929 8.00385 79.181 8.25315C78.8691 8.50244 78.5008 8.69627 78.1035 8.83478L80.6832 14.5126H79.181L76.7995 9.084H72.8022V14.4848ZM72.8022 2.65846V7.83768H76.6013C76.9696 7.83768 77.3379 7.78229 77.6498 7.67151C77.9906 7.56073 78.2736 7.39455 78.5008 7.17298C78.7555 6.95141 78.9255 6.67444 79.0674 6.36978C79.2092 6.06511 79.2664 5.70506 79.2664 5.28962C79.2664 4.90187 79.2092 4.54182 79.0674 4.20946C78.9255 3.8771 78.7273 3.60013 78.5008 3.37856C78.2736 3.15699 77.9906 2.99081 77.6498 2.85233C77.3097 2.74154 76.9696 2.65846 76.6013 2.65846H72.8022Z"
					fill="white" />
				<path
					d="M84.2862 14.4848H82.9258V1.41211H88.3117C88.9637 1.41211 89.5311 1.5229 90.013 1.74447C90.4949 1.96604 90.8633 2.2707 91.1751 2.63075C91.487 2.99081 91.7143 3.40626 91.8561 3.8771C91.9979 4.34793 92.0826 4.79108 92.0826 5.26192C92.0826 5.62198 92.0262 5.98203 91.9125 6.36978C91.7989 6.72983 91.6289 7.08988 91.4306 7.39455C91.2041 7.69924 90.9487 8.00385 90.6368 8.25315C90.3249 8.50244 89.9566 8.69627 89.5593 8.83478L92.1108 14.5126H90.6086L88.2271 9.084H84.2298V14.4848H84.2862ZM84.2862 2.65846V7.83768H88.0853C88.4536 7.83768 88.8226 7.78229 89.1345 7.67151C89.4746 7.56073 89.7575 7.39455 89.9848 7.17298C90.2113 6.95141 90.4103 6.67444 90.5514 6.36978C90.6932 6.06511 90.7504 5.70506 90.7504 5.28962C90.7504 4.90187 90.6932 4.54182 90.5514 4.20946C90.4103 3.8771 90.2395 3.60013 89.9848 3.37856C89.7293 3.15699 89.4464 2.99081 89.1345 2.85233C88.7937 2.74154 88.4536 2.65846 88.0853 2.65846H84.2862Z"
					fill="white" />
				<path
					d="M102.884 14.4848C102.714 13.9863 102.544 13.4601 102.374 12.9616C102.204 12.463 102.033 11.9368 101.863 11.4382H96.1076L95.0591 14.4848H93.6133C94.3789 12.2691 95.1727 10.1088 95.9376 7.94846C96.7032 5.78816 97.497 3.60013 98.2626 1.41211H99.7084L104.358 14.4848H102.884ZM98.9428 3.12929C98.8292 3.48934 98.6591 3.98788 98.4609 4.6526C98.2344 5.28962 98.0071 5.98203 97.7807 6.67444C97.5534 7.36685 97.2987 8.05924 97.1005 8.69627C96.8732 9.3333 96.7032 9.85954 96.5613 10.2196H101.41C101.296 9.83181 101.126 9.3333 100.899 8.69627C100.672 8.05924 100.446 7.36685 100.19 6.67444C99.9349 5.98203 99.7084 5.28962 99.4819 4.6526C99.2547 4.01558 99.0846 3.48934 98.971 3.12929H98.9428Z"
					fill="white" />
				<path
					d="M18.1172 31.823V19.1104H26.6506V20.3014H19.4497V24.8435H25.6301V26.0345H19.4497V30.6875H26.6506V31.8508H18.1172V31.823Z"
					fill="white" />
				<path
					d="M37.4511 27.6963C37.4511 28.3056 37.3377 28.8595 37.1109 29.3858C36.8841 29.8843 36.6006 30.3274 36.2037 30.6875C35.8068 31.0476 35.3532 31.3245 34.8146 31.5184C34.2759 31.7123 33.7088 31.823 33.0852 31.823H28.2656V19.1104H33.1135C33.7656 19.1104 34.3326 19.2211 34.8712 19.415C35.4099 19.6089 35.8635 19.8859 36.2321 20.246C36.6006 20.606 36.9124 21.0492 37.1109 21.5477C37.3377 22.0739 37.4227 22.6278 37.4227 23.2649V27.6963H37.4511ZM36.1187 23.5141C36.1187 22.9325 36.0336 22.4339 35.8352 22.0185C35.6367 21.6031 35.4099 21.2707 35.0981 21.0214C34.7862 20.7721 34.446 20.5783 34.0775 20.4675C33.6806 20.3568 33.312 20.3014 32.9151 20.3014H29.6265V30.6875H32.8017C33.1985 30.6875 33.5955 30.6321 33.9924 30.5213C34.3893 30.4105 34.7578 30.2166 35.0697 29.9674C35.3815 29.7181 35.6367 29.3858 35.8352 28.9703C36.0336 28.5548 36.147 28.0563 36.147 27.4747V23.5141H36.1187Z"
					fill="white" />
				<path
					d="M48.282 29.5242C48.0552 30.0228 47.715 30.4659 47.2898 30.826C46.8645 31.186 46.3542 31.463 45.7872 31.6569C45.2202 31.8508 44.5965 31.9338 43.9444 31.9338C43.2641 31.9338 42.6687 31.8508 42.1017 31.6569C41.5346 31.463 41.0243 31.186 40.5991 30.826C40.1739 30.4659 39.862 30.0228 39.6068 29.5242C39.38 29.0257 39.2383 28.4441 39.2383 27.7794V19.1104H40.5708V27.5301C40.5708 28.1117 40.6558 28.6102 40.8542 28.998C41.0243 29.4134 41.2795 29.7459 41.5914 29.9951C41.9032 30.2444 42.2717 30.4383 42.6687 30.5767C43.0656 30.6875 43.4908 30.7706 43.9444 30.7706C44.3697 30.7706 44.795 30.7152 45.1918 30.5767C45.6171 30.4383 45.9573 30.272 46.2691 29.9951C46.581 29.7459 46.8362 29.4134 47.0062 28.998C47.2047 28.5826 47.2898 28.1117 47.2898 27.5301V19.1104H48.6222V27.8071C48.6222 28.4441 48.5088 28.998 48.282 29.5242Z"
					fill="white" />
				<path
					d="M55.3671 18.9727C56.7563 18.9727 57.9187 19.3327 58.8826 20.0251L58.2022 21.0498C57.8336 20.7729 57.38 20.5513 56.898 20.4129C56.3877 20.2744 55.9058 20.1913 55.3671 20.1913C54.9419 20.1913 54.545 20.2467 54.1765 20.3852C53.7796 20.4959 53.4393 20.6898 53.1275 20.9668C52.8156 21.2161 52.5605 21.5484 52.362 21.9639C52.1635 22.3793 52.0785 22.8779 52.0785 23.4594V27.5032C52.0785 28.0848 52.1635 28.5833 52.362 28.9988C52.5605 29.4142 52.8156 29.7466 53.1275 30.0236C53.4393 30.3005 53.7796 30.4944 54.1765 30.6052C54.5733 30.7436 54.9419 30.799 55.3388 30.799C55.8774 30.799 56.3877 30.716 56.898 30.5775C57.4083 30.4389 57.862 30.2174 58.2589 29.885L58.9109 30.8821C58.5423 31.1591 58.0604 31.4084 57.4367 31.63C56.813 31.8515 56.1326 31.9623 55.3671 31.9623C54.6868 31.9623 54.0914 31.8515 53.5244 31.6576C52.9574 31.4638 52.4754 31.1868 52.0502 30.799C51.6249 30.4389 51.3131 29.9958 51.0863 29.4696C50.8595 28.9434 50.7461 28.3894 50.7461 27.7247V23.1548C50.7461 22.5178 50.8595 21.9639 51.1146 21.4653C51.3414 20.9668 51.6816 20.5237 52.1069 20.1359C52.5322 19.7759 53.0141 19.4712 53.5811 19.2773C54.1197 19.0834 54.7151 18.9727 55.3671 18.9727Z"
					fill="white" />
				<path
					d="M68.7214 31.8233C68.5513 31.3248 68.3812 30.8263 68.2111 30.3554C68.041 29.8569 67.8709 29.3861 67.7008 28.8875H62.1441L61.1235 31.851H59.7344C60.4998 29.7184 61.2369 27.5857 62.0024 25.5086C62.7395 23.4036 63.5049 21.2987 64.2704 19.166H65.6595L70.1956 31.8787H68.7214V31.8233ZM64.8941 20.8001C64.7807 21.1602 64.6106 21.6587 64.4121 22.268C64.2137 22.9051 63.9869 23.5421 63.7601 24.2345C63.5333 24.9269 63.3065 25.564 63.0797 26.2009C62.8529 26.8379 62.6828 27.3365 62.5694 27.6965H67.2755C67.1622 27.3365 66.992 26.8379 66.7936 26.2009C66.5667 25.564 66.34 24.9269 66.1132 24.2345C65.8864 23.5421 65.6595 22.9051 65.4327 22.268C65.206 21.631 65.0642 21.1602 64.9508 20.8001H64.8941Z"
					fill="white" />
				<path
					d="M74.4206 20.3014V31.7954H73.0881V20.3014H69.1758V19.1104H78.3048V20.3014H74.4206Z"
					fill="white" />
				<path d="M80.0039 31.8233V19.1106H81.3361V31.8233H80.0039Z" fill="white" />
				<path
					d="M92.8745 27.6967C92.8745 28.3614 92.7609 28.943 92.5344 29.4693C92.3072 29.9954 91.9671 30.4386 91.5705 30.7986C91.145 31.1587 90.6631 31.4357 90.0965 31.6572C89.5009 31.8511 88.8772 31.9619 88.197 31.9619C87.4878 31.9619 86.864 31.8511 86.2974 31.6572C85.7301 31.4634 85.2481 31.1587 84.8226 30.7986C84.4261 30.4386 84.1142 29.9954 83.8877 29.4693C83.6605 28.943 83.5469 28.3614 83.5469 27.6967V23.2652C83.5469 22.6282 83.6605 22.0743 83.8877 21.548C84.1142 21.0218 84.4261 20.5787 84.8226 20.1909C85.2199 19.8032 85.7301 19.5262 86.2974 19.3046C86.864 19.083 87.516 19 88.2252 19C88.9054 19 89.5574 19.1108 90.1247 19.3046C90.6913 19.4985 91.2014 19.8032 91.5987 20.1909C92.0242 20.5787 92.3361 21.0218 92.5626 21.548C92.7891 22.0743 92.9027 22.6282 92.9027 23.2652V27.6967H92.8745ZM91.5423 23.4314C91.5423 22.8775 91.4569 22.379 91.2586 21.9635C91.0886 21.548 90.8331 21.2157 90.5212 20.9664C90.2094 20.6894 89.8693 20.4955 89.4437 20.3848C89.0472 20.2463 88.6217 20.1909 88.168 20.1909C87.715 20.1909 87.2613 20.2463 86.864 20.3848C86.4393 20.5233 86.0984 20.7172 85.7873 20.9664C85.4754 21.2157 85.2481 21.5758 85.0781 21.9635C84.908 22.379 84.8226 22.8498 84.8226 23.4314V27.5305C84.8226 28.1121 84.908 28.6107 85.1063 28.9984C85.3053 29.4139 85.56 29.7462 85.8719 29.9954C86.1838 30.2447 86.5521 30.4386 86.9494 30.5771C87.3459 30.6878 87.7715 30.771 88.197 30.771C88.6499 30.771 89.0754 30.7156 89.5009 30.5771C89.9257 30.4386 90.2665 30.2725 90.5784 29.9954C90.8903 29.7185 91.1168 29.3861 91.3151 28.9984C91.4851 28.5829 91.5987 28.1121 91.5987 27.5305V23.4314H91.5423Z"
					fill="white" />
				<path
					d="M103.168 29.3304V19.1104H104.472V31.823H103.168C103.055 31.6569 102.885 31.3799 102.629 31.0476C102.403 30.7152 102.119 30.2998 101.807 29.8566C101.495 29.3858 101.155 28.8873 100.787 28.361C100.418 27.8348 100.05 27.2809 99.653 26.7269C99.284 26.173 98.8874 25.6191 98.5191 25.0928C98.15 24.5666 97.8099 24.0681 97.498 23.5972C97.1862 23.1541 96.9025 22.7386 96.676 22.4063C96.4206 22.0739 96.2505 21.8246 96.1376 21.6585H96.1087V31.823H94.8047V19.1104H96.0805C96.2223 19.332 96.4777 19.7197 96.8461 20.246C97.2144 20.7721 97.6117 21.3815 98.0654 22.0462C98.5191 22.711 99.0011 23.431 99.5394 24.2065C100.05 24.9543 100.56 25.6745 101.013 26.3669C101.467 27.0593 101.893 27.6686 102.261 28.1948C102.629 28.7211 102.913 29.1088 103.083 29.358H103.168V29.3304Z"
					fill="white" />
			<use href="#mask0_1074_10834"></use>
		
	</symbol>
	<symbol id="svg-phone" viewBox="0 0 18 18">
		<g>

			<path
				d="M15.1366 7.45178V6.98038C15.1366 6.90984 15.1366 6.87457 15.1362 6.84474C15.1039 4.59025 13.2841 2.77045 11.0296 2.73816C10.9998 2.73774 10.9645 2.73774 10.894 2.73774H10.4226M7.14821 5.81095C6.77051 6.67744 6.96166 7.6868 7.63004 8.35518L9.62738 10.3525C10.2958 11.0209 11.3051 11.2121 12.1716 10.8344C13.0381 10.4567 14.0475 10.6478 14.7158 11.3162L15.931 12.5314C15.9899 12.5902 16.0193 12.6197 16.0431 12.6456C16.629 13.2832 16.629 14.2633 16.0431 14.9009C16.0193 14.9269 15.9899 14.9563 15.931 15.0152L15.1924 15.7538C14.5909 16.3553 13.7238 16.6078 12.8934 16.4233C7.2354 15.1659 2.81662 10.7472 1.55929 5.08917C1.37476 4.25878 1.62726 3.39167 2.22876 2.79018L2.96738 2.05156C3.02625 1.99269 3.05569 1.96325 3.08162 1.93942C3.71925 1.35353 4.69934 1.35353 5.33697 1.93942C5.3629 1.96325 5.39234 1.99269 5.45121 2.05156L6.66637 3.26672C7.33475 3.9351 7.52591 4.94446 7.14821 5.81095Z"
				stroke="currentColor" stroke-width="1.5" stroke-linecap="round" />
			
		</g>
	</symbol>
	<symbol id="svg-pause" viewBox="0 0 10 14">
		<g>

			<path d="M2 2L2 12" stroke="white" stroke-width="2.5" stroke-linecap="round" />
			<path d="M8 2L8 12" stroke="white" stroke-width="2.5" stroke-linecap="round" />

		</g>
	</symbol>
	<symbol id="svg-minus"  viewBox="0 0 18 2">
		<g>
				<path d="M1 1H17" stroke="currentColor" stroke-width="2" stroke-linecap="round" />
		</g>
	</symbol>
	<symbol id="svg-plus" viewBox="0 0 18 18">
		<g>
			
				<path d="M1 9H17" stroke="currentColor" stroke-width="2" stroke-linecap="round" />
				<path d="M9 17L9 1" stroke="currentColor" stroke-width="2" stroke-linecap="round" />
			
		</g>
	</symbol>
	<symbol id="svg-quote" viewBox="0 0 19 16">
			<g>
				<path 
					d="M0 15.5455V11.4545C0 10.2121 0.219697 8.89394 0.659091 7.5C1.11364 6.09091 1.76515 4.73485 2.61364 3.43182C3.47727 2.11364 4.51515 0.969696 5.72727 0L7.95455 1.93182C6.80303 3.26515 5.83333 4.75 5.04545 6.38636C4.27273 8.00758 3.88636 9.67424 3.88636 11.3864V15.5455H0ZM10.6591 15.5455V11.4545C10.6591 10.2121 10.8788 8.89394 11.3182 7.5C11.7727 6.09091 12.4242 4.73485 13.2727 3.43182C14.1364 2.11364 15.1742 0.969696 16.3864 0L18.6136 1.93182C17.4621 3.26515 16.4924 4.75 15.7045 6.38636C14.9318 8.00758 14.5455 9.67424 14.5455 11.3864V15.5455H10.6591Z"
					fill="currentColor" />
			</g>
	</symbol>
</svg>
